<svg data-v-423bf9ae="" xmlns="http://www.w3.org/2000/svg" viewBox="0 0 388 90" class="iconLeftSlogan"><!----><!----><!----><g data-v-423bf9ae="" id="9424588b-b9ee-40ff-8100-2d45c1a5830c" fill="white" transform="matrix(6.109979629516602,0,0,6.109979629516602,112.38289642333984,-11.670059204101562)"><path d="M0.49 6.62L0.49 1.94L3.46 1.94Q5.33 1.94 6.03 3.21L6.03 3.21Q6.62 4.20 6.62 6.48L6.62 6.48L6.91 6.48L6.91 8.82L4.02 8.82L4.02 8.56L4.92 8.56L4.92 6.48L4.66 6.48L4.66 5.63Q4.66 4.18 4.02 3.79L4.02 3.79Q3.64 3.57 2.80 3.57L2.80 3.57L2.41 3.57L2.41 6.43L2.67 6.43L2.67 8.82L0.71 8.82L0.71 6.62L0.49 6.62ZM4.71 8.09L4.71 8.09L4.81 8.09L4.81 8.34L4.86 8.34L4.86 8.42L4.81 8.42L4.81 8.52L4.71 8.52L4.71 8.42L4.53 8.42L4.53 8.36Q4.71 8.11 4.71 8.09ZM4.63 8.34L4.63 8.34L4.71 8.34L4.71 8.24Q4.69 8.24 4.63 8.34ZM2.90 8.54L2.77 8.33L2.86 8.33Q2.88 8.33 2.97 8.44L2.97 8.44Q3.04 8.36 3.04 8.33L3.04 8.33L3.14 8.33L3.14 8.34Q3.04 8.50 3.04 8.54L3.04 8.54L3.17 8.75L3.04 8.75Q3.04 8.70 2.95 8.62L2.95 8.62Q2.89 8.74 2.85 8.75L2.85 8.75L2.75 8.75Q2.86 8.55 2.90 8.54L2.90 8.54ZM-0.39 9.13L-0.39 8.82L0.50 8.82L0.50 9.13L2.67 9.13L2.67 9.78L4.02 9.78L4.02 9.13L6.91 9.13L6.91 9.78L4.92 9.78L4.92 11.52L2.67 11.52L2.67 11.73L0.51 11.73Q0.49 11.73 0.49 11.70L0.49 11.70L0.49 9.13L-0.39 9.13ZM2.67 9.13L2.67 8.82L4.02 8.82L4.02 9.13L2.67 9.13ZM6.91 9.13L6.91 8.82L8.84 8.82L8.84 9.13L6.91 9.13ZM5.15 9.84L5.15 9.84L5.27 9.84Q5.39 10.16 5.41 10.28L5.41 10.28L5.33 10.28Q5.30 10.28 5.28 10.19L5.28 10.19L5.15 10.19Q5.12 10.19 5.11 10.28L5.11 10.28L5.00 10.28L5.00 10.27Q5.00 10.25 5.15 9.84ZM5.53 9.84L5.53 9.84L5.63 9.84L5.71 10.12L5.73 10.12Q5.73 10.09 5.81 9.84L5.81 9.84L5.91 9.84Q5.91 9.89 5.78 10.28L5.78 10.28L5.68 10.28Q5.64 10.28 5.53 9.84ZM6.08 10.28L6.08 9.84L6.19 9.84L6.19 10.28L6.08 10.28ZM6.38 10.28L6.38 9.84L6.57 9.84Q6.78 9.84 6.78 10.08L6.78 10.08Q6.78 10.25 6.57 10.28L6.57 10.28L6.38 10.28ZM6.60 9.94L6.50 9.94L6.50 10.19L6.60 10.19Q6.62 10.19 6.67 10.12L6.67 10.12L6.67 10.00Q6.67 9.98 6.60 9.94L6.60 9.94ZM5.22 9.97L5.20 9.97Q5.20 9.99 5.17 10.10L5.17 10.10L5.25 10.10Q5.22 9.99 5.22 9.97L5.22 9.97ZM7.29 6.33L7.29 1.94L9.18 1.94L9.18 7.12L8.29 7.12L8.29 7.39L9.18 7.39L9.18 8.36Q9.18 9.69 9.65 9.91L9.65 9.91Q9.89 10.06 10.25 10.06L10.25 10.06L10.83 10.06L10.83 8.34L11.34 8.34L11.34 1.94L13.21 1.94L13.21 7.96L12.54 7.96L12.54 8.39L13.21 8.39Q13.20 8.61 13.20 8.72L13.20 8.72L13.20 10.64L12.22 10.64L12.22 11.73L7.84 11.73L7.84 10.38L7.44 10.38L7.44 6.33L7.29 6.33ZM9.18 7.39L9.18 7.12L10.25 7.12L10.25 7.39L9.18 7.39ZM15.00 7.57L16.68 1.96L18.33 1.96Q18.36 2.10 19.93 7.29L19.93 7.29L20.23 7.29L20.23 10.51L19.55 10.51L19.55 10.76L20.23 10.76L20.23 11.45L18.41 11.45L18.41 9.47L16.19 9.47L16.19 10.32L15.28 10.32L15.28 11.73L13.63 11.73L13.63 11.63L13.76 11.63L13.76 10.32L14.44 10.32L14.44 7.57L15.00 7.57ZM17.49 4.71L17.45 4.71L17.45 4.72Q17.24 5.89 16.63 8.40L16.63 8.40L18.16 8.40L18.16 7.29L18.03 7.29Q17.49 4.92 17.49 4.71L17.49 4.71ZM13.15 7.57L13.15 7.28L14.44 7.28L14.44 7.57L13.15 7.57ZM18.41 11.73L18.41 11.57L20.60 11.57L20.60 11.73L18.41 11.73ZM20.32 8.85L20.32 1.91L22.27 1.91L22.27 5.94L21.89 5.94L21.89 10.10L24.79 10.10L24.79 10.97L24.22 10.97L24.22 11.17L24.79 11.17L24.79 11.73L22.91 11.73L22.91 11.58L20.34 11.58Q20.32 11.42 20.32 11.33L20.32 11.33L20.32 9.14L20.82 9.14L20.82 8.85L20.32 8.85ZM24.79 11.17L24.79 10.97L25.50 10.97L25.50 11.17L24.79 11.17ZM29.05 8.93L26.60 8.93Q26.33 8.93 26.33 8.74L26.33 8.74L26.33 8.18Q26.33 7.98 26.61 7.98L26.61 7.98L29.04 7.98Q29.32 7.98 29.32 8.18L29.32 8.18L29.32 8.74Q29.32 8.93 29.05 8.93L29.05 8.93ZM30.48 1.93L30.48 1.93L33.26 1.93Q35.12 1.93 35.62 2.87L35.62 2.87Q35.91 3.36 35.91 4.21L35.91 4.21L35.91 4.89Q35.91 5.86 35.07 6.45L35.07 6.45Q35.36 6.50 35.79 6.89L35.79 6.89L36.00 6.89Q36.42 7.31 36.54 7.71L36.54 7.71Q36.58 7.85 36.58 7.86L36.58 7.86L36.85 7.86L36.85 8.03L35.96 8.03L35.96 7.86L34.13 7.86L34.13 7.34L32.34 7.34L32.34 10.19L33.46 10.19L33.46 9.99L34.13 9.99L34.13 8.03L35.96 8.03L35.96 9.75L36.16 9.75L36.16 10.84L35.55 10.84L35.55 11.09L36.16 11.09L36.16 11.55L33.84 11.55L33.84 11.73L31.32 11.73L31.32 11.55L30.77 11.55L30.77 10.04L31.52 10.04L31.52 9.64L30.77 9.64Q30.75 8.49 30.75 7.93L30.75 7.93L30.75 7.21L30.11 7.21L30.11 7.02L30.75 7.02L30.75 6.64L30.45 6.64L30.45 1.97Q30.45 1.93 30.48 1.93ZM32.69 3.59L32.38 3.59L32.38 6.02L32.79 6.02Q33.53 6.02 33.76 5.77L33.76 5.77Q34.00 5.57 34.00 4.70L34.00 4.70L34.00 4.66Q34.00 3.91 33.76 3.76L33.76 3.76Q33.61 3.59 32.69 3.59L32.69 3.59ZM31.67 7.02L30.77 7.02L30.77 7.21L31.67 7.21L31.67 7.02ZM30.40 7.69L30.40 7.24L30.73 7.24L30.73 7.31Q30.73 7.34 30.70 7.34L30.70 7.34L30.50 7.34L30.50 7.41L30.68 7.41Q30.71 7.42 30.71 7.44L30.71 7.44L30.71 7.48Q30.71 7.51 30.68 7.51L30.68 7.51L30.50 7.51L30.50 7.59L30.73 7.59L30.73 7.66Q30.73 7.69 30.70 7.69L30.70 7.69L30.40 7.69ZM33.21 8.03L33.21 7.86L34.13 7.86L34.13 8.03L33.21 8.03ZM36.22 8.06L36.22 8.06L36.28 8.06Q36.31 8.07 36.31 8.09L36.31 8.09L36.31 8.38Q36.29 8.53 36.16 8.53L36.16 8.53Q36.00 8.50 36.00 8.38L36.00 8.38L36.00 8.36Q36.01 8.33 36.04 8.33L36.04 8.33L36.07 8.33Q36.11 8.33 36.13 8.43L36.13 8.43L36.19 8.43L36.19 8.09Q36.20 8.06 36.22 8.06ZM36.07 8.65L36.07 8.65L36.21 8.65Q36.44 8.65 36.44 8.90L36.44 8.90Q36.44 9.07 36.22 9.10L36.22 9.10L36.04 9.10L36.04 8.68Q36.05 8.65 36.07 8.65ZM36.21 8.75L36.16 8.75L36.16 9.00L36.22 9.00Q36.33 9.00 36.33 8.90L36.33 8.90L36.33 8.87Q36.33 8.75 36.21 8.75L36.21 8.75ZM36.07 9.24L36.07 9.24L36.33 9.24Q36.36 9.24 36.36 9.27L36.36 9.27L36.36 9.34L36.16 9.34L36.16 9.42L36.33 9.42L36.33 9.50L36.16 9.50L36.16 9.65Q36.16 9.69 36.13 9.69L36.13 9.69L36.04 9.69L36.04 9.27Q36.05 9.24 36.07 9.24ZM33.73 9.57L33.73 9.50L34.08 9.50L34.08 9.58L33.87 9.86L34.10 9.86L34.10 9.92Q34.10 9.95 34.06 9.95L34.06 9.95L33.75 9.95Q33.71 9.95 33.71 9.92L33.71 9.92L33.71 9.87L33.93 9.60L33.76 9.60Q33.73 9.60 33.73 9.57L33.73 9.57ZM32.39 9.86L32.39 9.79L32.41 9.79Q32.72 9.88 32.72 9.92L32.72 9.92L32.72 9.95Q32.69 10.00 32.41 10.10L32.41 10.10L32.39 10.07L32.39 10.06Q32.39 10.01 32.59 9.95L32.59 9.95Q32.59 9.92 32.39 9.86L32.39 9.86ZM37.45 1.93L37.45 1.93L39.29 1.93Q39.32 1.94 39.32 1.97L39.32 1.97L39.32 6.73Q39.32 6.76 39.29 6.76L39.29 6.76L39.07 6.76L39.07 11.70Q39.07 11.73 39.04 11.73L39.04 11.73L37.45 11.73Q37.41 11.73 37.41 11.70L37.41 11.70L37.41 6.64L36.92 6.64Q36.89 6.64 36.89 6.61L36.89 6.61L36.89 6.40Q36.89 6.36 36.92 6.36L36.92 6.36L37.41 6.36L37.41 1.97Q37.42 1.93 37.45 1.93ZM38.37 6.36L37.43 6.36L37.43 6.64L38.37 6.64L38.37 6.36ZM39.33 3.57L39.33 1.93L45.08 1.93L45.08 3.57L43.18 3.57L43.18 10.34L44.04 10.34L44.04 10.54L43.18 10.54L43.18 11.29L42.66 11.29L42.66 11.55L43.03 11.55L43.03 11.73L41.28 11.73Q41.25 11.73 41.25 11.70L41.25 11.70L41.25 3.57L39.33 3.57ZM43.16 10.34L42.50 10.34L42.50 10.54L43.16 10.54L43.16 10.34Z"></path></g><!----><g data-v-423bf9ae="" id="ab5459c9-8ee8-45c6-a7b4-20d01c42f6ca" transform="matrix(2.8125,0,0,2.8125,0,0)" stroke="none" fill="white"><path d="M0 32h32V0H0v32zm19.377-19.492l6.936-6.936v20.855h-6.936V12.508zM5.688 5.572l6.936 6.936v13.919H5.688V5.572z"></path></g><!----><g data-v-423bf9ae="" id="051ec055-18f4-45b0-9350-dbe4d1430a17" fill="white" transform="matrix(0.8213474750518799,0,0,0.8213474750518799,109.14579772949219,56.11502456665039)"><path d="M6.62 14.38L6.62 14.38Q6.97 14.98 6.97 15.54L6.97 15.54Q6.97 15.67 6.95 15.77Q6.93 15.88 6.90 15.99L6.90 15.99Q6.66 15.96 6.41 15.95Q6.15 15.93 5.87 15.93L5.87 15.93Q5.53 15.93 5.19 15.95Q4.84 15.97 4.42 16.02Q4.00 16.06 3.49 16.13Q2.97 16.20 2.28 16.31L2.28 16.31Q1.96 16.20 1.64 15.87Q1.32 15.54 1.04 15.08L1.04 15.08Q1.18 14.77 1.39 14.31Q1.60 13.86 1.88 13.21Q2.16 12.56 2.50 11.68Q2.84 10.81 3.23 9.66L3.23 9.66Q3.49 8.90 3.67 8.33Q3.85 7.76 4.00 7.22Q4.14 6.68 4.28 6.09Q4.42 5.50 4.59 4.73L4.59 4.73Q5.15 4.84 5.57 5.14Q5.98 5.45 6.36 6.01L6.36 6.01Q6.24 6.19 6.06 6.59Q5.88 7 5.63 7.58Q5.39 8.16 5.10 8.90Q4.80 9.63 4.48 10.47L4.48 10.47Q4.17 11.30 3.88 12.03Q3.58 12.75 3.35 13.34Q3.12 13.93 2.98 14.35Q2.84 14.77 2.84 14.98L2.84 14.98Q3.07 14.97 3.25 14.95Q3.43 14.94 3.63 14.90Q3.82 14.87 4.05 14.82Q4.28 14.77 4.61 14.69L4.61 14.69Q4.89 14.62 5.12 14.57Q5.36 14.52 5.59 14.48Q5.82 14.45 6.07 14.43Q6.31 14.41 6.62 14.38ZM21.04 9.21L21.04 9.21Q21.50 9.21 21.76 9.46Q22.02 9.72 22.02 10.16L22.02 10.16Q22.02 10.28 22.00 10.39Q21.98 10.51 21.95 10.60L21.95 10.60Q21.77 10.57 21.55 10.55Q21.32 10.53 21.01 10.53L21.01 10.53Q20.41 10.53 19.80 10.63Q19.18 10.74 18.62 10.81L18.62 10.81Q18.30 11.55 18.03 12.24Q17.77 12.94 17.58 13.51Q17.39 14.08 17.28 14.50Q17.18 14.92 17.16 15.13L17.16 15.13Q18.30 14.90 19.45 14.73Q20.61 14.56 21.88 14.48L21.88 14.48Q22.04 14.71 22.14 14.99Q22.25 15.27 22.25 15.60L22.25 15.60Q22.25 15.68 22.25 15.78Q22.25 15.88 22.22 15.97L22.22 15.97Q21.83 15.96 21.39 15.95Q20.96 15.95 20.26 15.95L20.26 15.95Q19.80 15.95 19.38 15.97Q18.97 15.99 18.55 16.03Q18.13 16.07 17.66 16.14Q17.19 16.21 16.60 16.31L16.60 16.31Q15.96 16.06 15.36 15.08L15.36 15.08Q15.60 14.57 16.02 13.54Q16.45 12.52 17.11 10.79L17.11 10.79Q16.48 10.60 16.28 10.09L16.28 10.09Q16.35 10.02 16.69 9.92Q17.02 9.81 17.51 9.70L17.51 9.70Q17.72 9.16 17.87 8.75Q18.02 8.34 18.13 7.99Q18.24 7.63 18.33 7.29Q18.42 6.94 18.51 6.54L18.51 6.54Q18.02 6.51 17.74 6.27Q17.46 6.02 17.46 5.63L17.46 5.63Q17.46 5.52 17.49 5.36Q17.53 5.21 17.57 5.10L17.57 5.10Q17.85 5.14 18.11 5.15Q18.37 5.17 18.79 5.17L18.79 5.17Q19.67 5.17 20.44 5.12Q21.21 5.07 21.83 5.01Q22.46 4.96 22.90 4.91Q23.35 4.86 23.59 4.86L23.59 4.86Q23.91 4.86 24.16 5.19Q24.42 5.53 24.54 6.15L24.54 6.15Q24.11 6.10 23.84 6.09Q23.56 6.08 23.35 6.08L23.35 6.08Q22.58 6.08 21.95 6.15Q21.31 6.23 20.72 6.31L20.72 6.31Q20.64 6.44 20.53 6.64Q20.43 6.83 20.26 7.18Q20.09 7.53 19.84 8.06Q19.60 8.60 19.25 9.39L19.25 9.39Q19.78 9.31 20.25 9.26Q20.72 9.21 21.04 9.21ZM31.42 16.24L31.42 16.24Q30.74 16.04 30.48 15.85Q30.23 15.65 30.23 15.36L30.23 15.36Q30.23 15.13 30.35 14.73Q30.48 14.32 30.72 13.77Q30.97 13.22 31.31 12.54Q31.65 11.87 32.09 11.10L32.09 11.10Q31.72 11.09 31.44 11.08Q31.15 11.07 30.97 11.07L30.97 11.07Q31.05 10.86 31.44 10.71Q31.84 10.56 32.48 10.44L32.48 10.44Q33.03 9.53 33.65 8.71Q34.27 7.88 34.90 7.19Q35.53 6.50 36.16 5.97Q36.79 5.45 37.37 5.14L37.37 5.14Q37.38 5.04 37.39 4.97Q37.39 4.90 37.39 4.87L37.39 4.87Q37.59 4.87 37.92 4.97Q38.25 5.07 38.56 5.21Q38.88 5.35 39.12 5.49Q39.37 5.64 39.40 5.74L39.40 5.74Q38.93 6.55 38.49 8.17Q38.04 9.79 37.74 12.04L37.74 12.04Q37.67 12.60 37.63 13.31Q37.58 14.03 37.58 14.91L37.58 14.91Q37.58 15.22 37.58 15.54Q37.58 15.86 37.60 16.21L37.60 16.21Q37.58 16.23 37.55 16.23Q37.52 16.23 37.44 16.23L37.44 16.23Q37.24 16.23 36.98 16.16Q36.72 16.10 36.48 16.01Q36.23 15.92 36.06 15.81Q35.88 15.69 35.84 15.61L35.84 15.61Q35.83 15.43 35.83 15.25Q35.83 15.08 35.83 14.88L35.83 14.88Q35.83 14.01 35.89 13.12Q35.95 12.22 36.11 11.27L36.11 11.27Q35.91 11.26 35.59 11.23Q35.27 11.21 34.87 11.20Q34.47 11.19 34.01 11.16Q33.56 11.14 33.12 11.13L33.12 11.13Q32.79 11.76 32.49 12.38Q32.20 13.01 31.99 13.64L31.99 13.64Q31.75 14.31 31.61 14.98Q31.46 15.65 31.42 16.24ZM36.82 7.83L36.82 7.83Q36.88 7.63 36.95 7.29Q37.03 6.94 37.10 6.57L37.10 6.57Q36.75 6.69 36.32 7.03Q35.90 7.36 35.44 7.86Q34.99 8.36 34.52 8.98Q34.05 9.60 33.61 10.30L33.61 10.30Q34.79 10.21 36.29 10.18L36.29 10.18Q36.40 9.59 36.53 9.01Q36.67 8.43 36.82 7.83ZM56.29 7.46L56.29 7.46Q56.29 8.13 55.99 8.73Q55.69 9.32 55.16 9.79Q54.63 10.26 53.91 10.58Q53.20 10.91 52.36 11.02L52.36 11.02Q52.57 11.65 52.87 12.31Q53.17 12.98 53.52 13.59Q53.87 14.21 54.25 14.73Q54.63 15.25 54.99 15.58L54.99 15.58Q54.92 15.72 54.79 15.86Q54.66 16.00 54.48 16.12Q54.31 16.24 54.12 16.32Q53.93 16.39 53.76 16.39L53.76 16.39Q53.45 16.39 53.17 16.10Q52.89 15.81 52.60 15.17Q52.32 14.53 52.00 13.52Q51.69 12.50 51.31 11.07L51.31 11.07Q51.16 11.07 51.00 11.07Q50.85 11.07 50.76 11.05L50.76 11.05Q50.67 10.99 50.55 10.85L50.55 10.85Q50.18 11.66 49.88 12.38Q49.59 13.09 49.36 13.76Q49.13 14.42 48.95 15.04Q48.78 15.67 48.65 16.31L48.65 16.31Q48.17 16.20 47.82 15.90Q47.47 15.61 47.17 15.08L47.17 15.08Q47.22 14.95 47.28 14.83Q47.35 14.71 47.45 14.50Q47.54 14.28 47.69 13.94Q47.84 13.61 48.08 13.05Q48.33 12.49 48.67 11.68Q49.01 10.86 49.50 9.70L49.50 9.70Q49.73 9.18 49.89 8.79Q50.05 8.40 50.18 8.04Q50.30 7.69 50.41 7.33Q50.51 6.97 50.62 6.51L50.62 6.51Q49.98 6.73 49.43 7.01Q48.87 7.28 48.51 7.59L48.51 7.59Q48.38 7.50 48.25 7.34Q48.12 7.17 48.01 6.96Q47.89 6.76 47.81 6.55Q47.73 6.34 47.71 6.17L47.71 6.17Q48.13 5.89 48.74 5.66Q49.35 5.42 50.04 5.24Q50.72 5.07 51.44 4.97Q52.15 4.87 52.77 4.87L52.77 4.87Q54.45 4.87 55.37 5.56Q56.29 6.26 56.29 7.46ZM52.71 6.02L52.88 6.29Q52.78 6.41 52.57 6.79Q52.36 7.17 52.09 7.69Q51.81 8.22 51.51 8.83Q51.21 9.45 50.93 10.05L50.93 10.05Q51.98 10.05 52.86 9.86Q53.75 9.66 54.39 9.30Q55.03 8.95 55.39 8.46Q55.75 7.98 55.75 7.39L55.75 7.39Q55.75 6.69 55.24 6.32Q54.74 5.95 53.69 5.95L53.69 5.95Q53.45 5.95 53.21 5.97Q52.98 5.99 52.71 6.02L52.71 6.02ZM64.69 16.24L64.69 16.24Q63.90 16.00 63.62 15.79Q63.34 15.57 63.34 15.19L63.34 15.19Q63.34 14.77 63.53 14.01Q63.73 13.24 64.04 12.31Q64.36 11.37 64.76 10.35Q65.17 9.32 65.59 8.39Q66.01 7.45 66.41 6.67Q66.81 5.89 67.12 5.46L67.12 5.46L67.02 4.87Q67.21 4.87 67.56 4.97Q67.91 5.07 68.27 5.21Q68.63 5.35 68.90 5.49Q69.17 5.64 69.20 5.74L69.20 5.74Q69.13 6.08 69.09 6.76Q69.05 7.43 69.05 8.20L69.05 8.20Q69.05 9.73 69.17 11.19Q69.29 12.66 69.72 14.17L69.72 14.17Q69.94 13.05 70.20 11.94Q70.46 10.82 70.74 9.81Q71.02 8.79 71.30 7.92Q71.58 7.06 71.84 6.40Q72.10 5.75 72.32 5.38Q72.55 5.01 72.73 4.98L72.73 4.98Q72.88 5.01 73.07 5.10Q73.25 5.19 73.42 5.32Q73.58 5.45 73.72 5.60Q73.86 5.75 73.95 5.91L73.95 5.91Q73.50 6.09 73.06 6.76Q72.62 7.43 72.22 8.39Q71.82 9.35 71.48 10.47Q71.13 11.59 70.88 12.68Q70.62 13.76 70.47 14.69Q70.32 15.61 70.31 16.17L70.31 16.17Q70.31 16.20 70.32 16.21L70.32 16.21Q70.28 16.23 70.23 16.23Q70.18 16.23 70.14 16.23L70.14 16.23Q69.50 16.23 69.00 16.07Q68.50 15.90 68.35 15.61L68.35 15.61Q68.05 14.43 67.86 13.34Q67.66 12.25 67.53 11.16Q67.40 10.07 67.32 8.95Q67.24 7.84 67.20 6.62L67.20 6.62Q66.93 7.04 66.64 7.72Q66.35 8.40 66.07 9.21Q65.79 10.02 65.53 10.92Q65.27 11.82 65.07 12.67Q64.88 13.52 64.76 14.29Q64.65 15.05 64.65 15.61L64.65 15.61Q64.65 15.90 64.66 16.03Q64.67 16.16 64.69 16.24ZM80.43 14.38L80.43 14.38Q80.43 13.87 80.59 13.07Q80.75 12.26 81.01 11.33Q81.27 10.40 81.61 9.43Q81.94 8.46 82.29 7.60Q82.64 6.75 82.98 6.10Q83.31 5.46 83.58 5.18L83.58 5.18Q83.72 5.19 83.95 5.29Q84.18 5.38 84.42 5.50Q84.66 5.63 84.85 5.78Q85.05 5.92 85.11 6.05L85.11 6.05Q84.70 6.41 84.30 7.15Q83.90 7.88 83.53 8.82Q83.16 9.76 82.84 10.80Q82.52 11.84 82.28 12.82Q82.04 13.80 81.91 14.64Q81.77 15.48 81.77 16.00L81.77 16.00Q81.77 16.24 81.82 16.30L81.82 16.30Q81.51 16.28 81.37 16.19Q81.23 16.10 81.15 16.00Q81.07 15.89 81.01 15.79Q80.95 15.68 80.82 15.62L80.82 15.62Q80.72 15.58 80.65 15.43Q80.58 15.27 80.53 15.09Q80.49 14.90 80.46 14.70Q80.43 14.50 80.43 14.38ZM92.67 16.24L92.67 16.24Q91.87 16.00 91.59 15.79Q91.31 15.57 91.31 15.19L91.31 15.19Q91.31 14.77 91.50 14.01Q91.70 13.24 92.02 12.31Q92.33 11.37 92.74 10.35Q93.14 9.32 93.56 8.39Q93.98 7.45 94.38 6.67Q94.78 5.89 95.09 5.46L95.09 5.46L94.99 4.87Q95.19 4.87 95.54 4.97Q95.89 5.07 96.24 5.21Q96.60 5.35 96.87 5.49Q97.15 5.64 97.17 5.74L97.17 5.74Q97.10 6.08 97.06 6.76Q97.02 7.43 97.02 8.20L97.02 8.20Q97.02 9.73 97.14 11.19Q97.26 12.66 97.69 14.17L97.69 14.17Q97.92 13.05 98.17 11.94Q98.43 10.82 98.71 9.81Q98.99 8.79 99.27 7.92Q99.55 7.06 99.81 6.40Q100.07 5.75 100.30 5.38Q100.52 5.01 100.70 4.98L100.70 4.98Q100.86 5.01 101.04 5.10Q101.22 5.19 101.39 5.32Q101.56 5.45 101.70 5.60Q101.84 5.75 101.92 5.91L101.92 5.91Q101.47 6.09 101.03 6.76Q100.59 7.43 100.19 8.39Q99.79 9.35 99.45 10.47Q99.11 11.59 98.85 12.68Q98.59 13.76 98.44 14.69Q98.29 15.61 98.28 16.17L98.28 16.17Q98.28 16.20 98.29 16.21L98.29 16.21Q98.25 16.23 98.20 16.23Q98.15 16.23 98.11 16.23L98.11 16.23Q97.47 16.23 96.97 16.07Q96.47 15.90 96.32 15.61L96.32 15.61Q96.03 14.43 95.83 13.34Q95.63 12.25 95.50 11.16Q95.37 10.07 95.29 8.95Q95.21 7.84 95.17 6.62L95.17 6.62Q94.91 7.04 94.61 7.72Q94.32 8.40 94.04 9.21Q93.76 10.02 93.50 10.92Q93.24 11.82 93.04 12.67Q92.85 13.52 92.74 14.29Q92.62 15.05 92.62 15.61L92.62 15.61Q92.62 15.90 92.63 16.03Q92.64 16.16 92.67 16.24ZM115.74 10.72L115.74 10.72Q116.10 10.72 116.31 10.98Q116.52 11.23 116.52 11.68L116.52 11.68Q116.52 11.79 116.51 11.91Q116.49 12.03 116.47 12.11L116.47 12.11Q116.17 12.04 115.82 12.03L115.82 12.03Q115.74 12.64 115.37 13.32Q115.01 14 114.49 14.60Q113.97 15.19 113.36 15.64Q112.74 16.09 112.14 16.24L112.14 16.24Q110.26 16.20 109.40 15.27Q108.54 14.34 108.54 12.36L108.54 12.36Q108.54 10.92 109.07 9.57Q109.61 8.22 110.49 7.17Q111.37 6.12 112.51 5.48Q113.65 4.84 114.88 4.84L114.88 4.84Q115.85 4.84 116.39 5.25Q116.93 5.66 116.93 6.40L116.93 6.40Q116.93 6.89 116.70 7.31Q116.47 7.73 115.93 8.22L115.93 8.22Q115.61 8.12 115.37 7.88Q115.14 7.63 115.08 7.31L115.08 7.31Q115.56 6.96 115.75 6.66Q115.95 6.37 115.95 5.96L115.95 5.96Q115.95 5.32 115.18 5.32L115.18 5.32Q114.55 5.32 113.83 5.79Q113.11 6.26 112.38 7.14L112.38 7.14Q111.34 8.39 110.87 9.71Q110.39 11.03 110.39 12.68L110.39 12.68Q110.39 13.30 110.52 13.80Q110.64 14.31 110.85 14.69Q111.06 15.06 111.35 15.29Q111.64 15.51 111.97 15.54L111.97 15.54Q112.42 15.44 112.87 15.09Q113.32 14.73 113.69 14.25Q114.06 13.76 114.32 13.21Q114.58 12.66 114.63 12.15L114.63 12.15Q114.24 12.24 113.88 12.31Q113.53 12.39 113.20 12.39L113.20 12.39Q112.78 12.39 112.47 12.18Q112.15 11.97 112.04 11.61L112.04 11.61Q112.29 11.47 112.78 11.31Q113.26 11.16 113.81 11.03Q114.35 10.89 114.88 10.81Q115.40 10.72 115.74 10.72ZM140.20 16.21L140.20 16.21Q140.17 16.23 140.14 16.23Q140.11 16.23 140.03 16.23L140.03 16.23Q139.83 16.23 139.57 16.16Q139.31 16.10 139.07 16.01Q138.82 15.92 138.65 15.81Q138.47 15.69 138.43 15.61L138.43 15.61Q138.42 15.41 138.42 15.20Q138.42 14.99 138.42 14.80L138.42 14.80Q138.42 13.23 138.65 11.52Q138.88 9.81 139.41 7.83L139.41 7.83Q139.47 7.63 139.53 7.33Q139.59 7.03 139.66 6.68L139.66 6.68Q139.33 6.94 138.87 7.53Q138.40 8.11 137.89 8.90Q137.38 9.69 136.87 10.63Q136.36 11.58 135.94 12.55Q135.52 13.52 135.22 14.48Q134.92 15.43 134.85 16.24L134.85 16.24Q134.18 16.04 133.92 15.85Q133.66 15.65 133.66 15.37L133.66 15.37Q133.66 15.12 133.81 14.66Q133.97 14.20 134.25 13.57Q134.53 12.94 134.93 12.16Q135.34 11.38 135.83 10.49L135.83 10.49Q136.39 9.46 136.93 8.57Q137.47 7.67 137.98 6.94Q138.50 6.22 139.00 5.68Q139.50 5.15 139.99 4.87L139.99 4.87Q140.18 4.87 140.51 4.97Q140.84 5.07 141.16 5.21Q141.47 5.35 141.72 5.49Q141.96 5.64 141.99 5.74L141.99 5.74Q141.79 6.13 141.53 6.92Q141.26 7.70 140.99 8.69Q140.71 9.69 140.47 10.80Q140.22 11.91 140.08 12.94L140.08 12.94Q140.41 12.17 140.83 11.33Q141.26 10.50 141.74 9.68Q142.21 8.86 142.71 8.09Q143.21 7.32 143.68 6.69Q144.16 6.05 144.57 5.57Q144.98 5.10 145.31 4.87L145.31 4.87Q145.50 4.87 145.83 4.97Q146.16 5.07 146.47 5.21Q146.79 5.35 147.03 5.49Q147.28 5.64 147.31 5.74L147.31 5.74Q146.86 6.54 146.52 7.69Q146.19 8.83 145.96 10.09Q145.73 11.35 145.61 12.59Q145.49 13.83 145.49 14.81L145.49 14.81Q145.49 15.13 145.49 15.48Q145.49 15.83 145.52 16.21L145.52 16.21Q145.32 16.21 145.05 16.16Q144.77 16.11 144.51 16.03Q144.26 15.95 144.05 15.84Q143.84 15.74 143.75 15.61L143.75 15.61Q143.74 15.41 143.74 15.20Q143.74 14.99 143.74 14.80L143.74 14.80Q143.74 13.23 143.97 11.52Q144.20 9.81 144.73 7.83L144.73 7.83Q144.79 7.63 144.86 7.29Q144.93 6.96 145.00 6.59L145.00 6.59Q144.61 6.79 144.11 7.34Q143.61 7.90 143.10 8.69Q142.59 9.48 142.09 10.44Q141.60 11.41 141.20 12.41Q140.80 13.41 140.53 14.40Q140.25 15.39 140.20 16.21ZM155.23 16.24L155.23 16.24Q154.56 16.04 154.30 15.85Q154.04 15.65 154.04 15.36L154.04 15.36Q154.04 15.13 154.17 14.73Q154.29 14.32 154.54 13.77Q154.78 13.22 155.13 12.54Q155.47 11.87 155.90 11.10L155.90 11.10Q155.54 11.09 155.25 11.08Q154.97 11.07 154.78 11.07L154.78 11.07Q154.87 10.86 155.26 10.71Q155.65 10.56 156.30 10.44L156.30 10.44Q156.84 9.53 157.46 8.71Q158.09 7.88 158.72 7.19Q159.35 6.50 159.98 5.97Q160.61 5.45 161.18 5.14L161.18 5.14Q161.20 5.04 161.20 4.97Q161.21 4.90 161.21 4.87L161.21 4.87Q161.41 4.87 161.73 4.97Q162.06 5.07 162.38 5.21Q162.69 5.35 162.94 5.49Q163.18 5.64 163.21 5.74L163.21 5.74Q162.75 6.55 162.30 8.17Q161.85 9.79 161.56 12.04L161.56 12.04Q161.49 12.60 161.44 13.31Q161.39 14.03 161.39 14.91L161.39 14.91Q161.39 15.22 161.39 15.54Q161.39 15.86 161.42 16.21L161.42 16.21Q161.39 16.23 161.36 16.23Q161.34 16.23 161.25 16.23L161.25 16.23Q161.06 16.23 160.80 16.16Q160.54 16.10 160.29 16.01Q160.05 15.92 159.87 15.81Q159.70 15.69 159.66 15.61L159.66 15.61Q159.64 15.43 159.64 15.25Q159.64 15.08 159.64 14.88L159.64 14.88Q159.64 14.01 159.70 13.12Q159.77 12.22 159.92 11.27L159.92 11.27Q159.73 11.26 159.40 11.23Q159.08 11.21 158.68 11.20Q158.28 11.19 157.83 11.16Q157.37 11.14 156.94 11.13L156.94 11.13Q156.60 11.76 156.31 12.38Q156.02 13.01 155.81 13.64L155.81 13.64Q155.57 14.31 155.42 14.98Q155.27 15.65 155.23 16.24ZM160.64 7.83L160.64 7.83Q160.69 7.63 160.77 7.29Q160.85 6.94 160.92 6.57L160.92 6.57Q160.57 6.69 160.14 7.03Q159.71 7.36 159.26 7.86Q158.80 8.36 158.33 8.98Q157.86 9.60 157.43 10.30L157.43 10.30Q158.61 10.21 160.10 10.18L160.10 10.18Q160.22 9.59 160.35 9.01Q160.48 8.43 160.64 7.83ZM171.53 14.45L171.53 14.45Q171.74 13.99 172.03 13.26Q172.33 12.53 172.65 11.68Q172.97 10.84 173.31 9.95Q173.64 9.06 173.94 8.26Q174.23 7.46 174.45 6.83Q174.66 6.20 174.76 5.87L174.76 5.87Q173.88 6.23 173.25 6.97Q172.62 7.71 172.30 8.83L172.30 8.83Q171.98 8.72 171.71 8.43Q171.44 8.15 171.36 7.71L171.36 7.71Q171.50 7.07 171.88 6.54Q172.27 6.01 172.86 5.63Q173.45 5.25 174.22 5.05Q174.99 4.84 175.87 4.84L175.87 4.84Q176.99 4.84 177.93 5.17Q178.86 5.50 179.54 6.09Q180.21 6.68 180.59 7.50Q180.96 8.33 180.96 9.34L180.96 9.34Q180.96 10.71 180.46 11.96Q179.96 13.20 179.09 14.15Q178.23 15.11 177.10 15.67Q175.97 16.24 174.72 16.24L174.72 16.24Q173.57 16.24 172.75 15.79Q171.93 15.33 171.53 14.45ZM176.47 5.54L176.47 5.54Q175.77 5.54 175.14 5.74L175.14 5.74Q175.76 5.96 176.16 6.21Q176.57 6.45 176.72 6.59L176.72 6.59Q176.61 6.75 176.39 7.14Q176.18 7.53 175.89 8.09Q175.60 8.65 175.28 9.32Q174.96 9.98 174.65 10.68L174.65 10.68Q173.85 12.46 173.49 13.48Q173.14 14.50 173.14 14.90L173.14 14.90Q173.33 14.97 173.61 14.99Q173.89 15.02 174.22 15.02L174.22 15.02Q175.35 15.02 176.36 14.50Q177.38 13.97 178.14 13.09Q178.91 12.21 179.35 11.04Q179.79 9.87 179.79 8.58L179.79 8.58Q179.79 7.14 178.89 6.34Q178.00 5.54 176.47 5.54ZM194.26 9.21L194.26 9.21Q194.73 9.21 194.98 9.46Q195.24 9.72 195.24 10.16L195.24 10.16Q195.24 10.28 195.22 10.39Q195.20 10.51 195.17 10.60L195.17 10.60Q194.99 10.57 194.77 10.55Q194.54 10.53 194.24 10.53L194.24 10.53Q193.63 10.53 193.02 10.63Q192.40 10.74 191.84 10.81L191.84 10.81Q191.52 11.55 191.25 12.24Q190.99 12.94 190.80 13.51Q190.61 14.08 190.50 14.50Q190.40 14.92 190.39 15.13L190.39 15.13Q191.52 14.90 192.67 14.73Q193.83 14.56 195.10 14.48L195.10 14.48Q195.26 14.71 195.36 14.99Q195.47 15.27 195.47 15.60L195.47 15.60Q195.47 15.68 195.47 15.78Q195.47 15.88 195.44 15.97L195.44 15.97Q195.05 15.96 194.61 15.95Q194.18 15.95 193.48 15.95L193.48 15.95Q193.02 15.95 192.60 15.97Q192.19 15.99 191.77 16.03Q191.35 16.07 190.88 16.14Q190.41 16.21 189.83 16.31L189.83 16.31Q189.18 16.06 188.58 15.08L188.58 15.08Q188.82 14.57 189.24 13.54Q189.67 12.52 190.33 10.79L190.33 10.79Q189.70 10.60 189.50 10.09L189.50 10.09Q189.57 10.02 189.91 9.92Q190.25 9.81 190.74 9.70L190.74 9.70Q190.95 9.16 191.09 8.75Q191.24 8.34 191.35 7.99Q191.46 7.63 191.55 7.29Q191.65 6.94 191.73 6.54L191.73 6.54Q191.24 6.51 190.96 6.27Q190.68 6.02 190.68 5.63L190.68 5.63Q190.68 5.52 190.71 5.36Q190.75 5.21 190.79 5.10L190.79 5.10Q191.07 5.14 191.33 5.15Q191.59 5.17 192.01 5.17L192.01 5.17Q192.89 5.17 193.66 5.12Q194.43 5.07 195.05 5.01Q195.68 4.96 196.13 4.91Q196.57 4.86 196.81 4.86L196.81 4.86Q197.13 4.86 197.39 5.19Q197.64 5.53 197.76 6.15L197.76 6.15Q197.33 6.10 197.06 6.09Q196.78 6.08 196.57 6.08L196.57 6.08Q195.80 6.08 195.17 6.15Q194.53 6.23 193.94 6.31L193.94 6.31Q193.86 6.44 193.75 6.64Q193.65 6.83 193.48 7.18Q193.31 7.53 193.07 8.06Q192.82 8.60 192.47 9.39L192.47 9.39Q193.00 9.31 193.47 9.26Q193.94 9.21 194.26 9.21ZM220.12 9.21L220.12 9.21Q220.58 9.21 220.84 9.46Q221.10 9.72 221.10 10.16L221.10 10.16Q221.10 10.28 221.08 10.39Q221.06 10.51 221.03 10.60L221.03 10.60Q220.85 10.57 220.63 10.55Q220.40 10.53 220.09 10.53L220.09 10.53Q219.49 10.53 218.88 10.63Q218.26 10.74 217.70 10.81L217.70 10.81Q217.38 11.55 217.11 12.24Q216.85 12.94 216.66 13.51Q216.47 14.08 216.36 14.50Q216.26 14.92 216.24 15.13L216.24 15.13Q217.38 14.90 218.53 14.73Q219.69 14.56 220.96 14.48L220.96 14.48Q221.12 14.71 221.22 14.99Q221.33 15.27 221.33 15.60L221.33 15.60Q221.33 15.68 221.33 15.78Q221.33 15.88 221.30 15.97L221.30 15.97Q220.91 15.96 220.47 15.95Q220.04 15.95 219.34 15.95L219.34 15.95Q218.88 15.95 218.46 15.97Q218.05 15.99 217.63 16.03Q217.21 16.07 216.74 16.14Q216.27 16.21 215.68 16.31L215.68 16.31Q215.04 16.06 214.44 15.08L214.44 15.08Q214.68 14.57 215.10 13.54Q215.53 12.52 216.19 10.79L216.19 10.79Q215.56 10.60 215.36 10.09L215.36 10.09Q215.43 10.02 215.77 9.92Q216.10 9.81 216.59 9.70L216.59 9.70Q216.80 9.16 216.95 8.75Q217.10 8.34 217.21 7.99Q217.32 7.63 217.41 7.29Q217.50 6.94 217.59 6.54L217.59 6.54Q217.10 6.51 216.82 6.27Q216.54 6.02 216.54 5.63L216.54 5.63Q216.54 5.52 216.57 5.36Q216.61 5.21 216.65 5.10L216.65 5.10Q216.93 5.14 217.19 5.15Q217.45 5.17 217.87 5.17L217.87 5.17Q218.75 5.17 219.52 5.12Q220.29 5.07 220.91 5.01Q221.54 4.96 221.98 4.91Q222.43 4.86 222.67 4.86L222.67 4.86Q222.99 4.86 223.24 5.19Q223.50 5.53 223.62 6.15L223.62 6.15Q223.19 6.10 222.91 6.09Q222.64 6.08 222.43 6.08L222.43 6.08Q221.66 6.08 221.02 6.15Q220.39 6.23 219.80 6.31L219.80 6.31Q219.72 6.44 219.61 6.64Q219.51 6.83 219.34 7.18Q219.17 7.53 218.92 8.06Q218.68 8.60 218.33 9.39L218.33 9.39Q218.86 9.31 219.33 9.26Q219.80 9.21 220.12 9.21ZM230.50 16.24L230.50 16.24Q229.82 16.04 229.56 15.85Q229.31 15.65 229.31 15.36L229.31 15.36Q229.31 15.13 229.43 14.73Q229.56 14.32 229.80 13.77Q230.05 13.22 230.39 12.54Q230.73 11.87 231.17 11.10L231.17 11.10Q230.80 11.09 230.52 11.08Q230.23 11.07 230.05 11.07L230.05 11.07Q230.13 10.86 230.52 10.71Q230.92 10.56 231.56 10.44L231.56 10.44Q232.11 9.53 232.73 8.71Q233.35 7.88 233.98 7.19Q234.61 6.50 235.24 5.97Q235.87 5.45 236.45 5.14L236.45 5.14Q236.46 5.04 236.47 4.97Q236.47 4.90 236.47 4.87L236.47 4.87Q236.67 4.87 237.00 4.97Q237.33 5.07 237.64 5.21Q237.96 5.35 238.20 5.49Q238.45 5.64 238.48 5.74L238.48 5.74Q238.01 6.55 237.57 8.17Q237.12 9.79 236.82 12.04L236.82 12.04Q236.75 12.60 236.70 13.31Q236.66 14.03 236.66 14.91L236.66 14.91Q236.66 15.22 236.66 15.54Q236.66 15.86 236.68 16.21L236.68 16.21Q236.66 16.23 236.63 16.23Q236.60 16.23 236.52 16.23L236.52 16.23Q236.32 16.23 236.06 16.16Q235.80 16.10 235.56 16.01Q235.31 15.92 235.14 15.81Q234.96 15.69 234.92 15.61L234.92 15.61Q234.91 15.43 234.91 15.25Q234.91 15.08 234.91 14.88L234.91 14.88Q234.91 14.01 234.97 13.12Q235.03 12.22 235.19 11.27L235.19 11.27Q234.99 11.26 234.67 11.23Q234.35 11.21 233.95 11.20Q233.55 11.19 233.09 11.16Q232.64 11.14 232.20 11.13L232.20 11.13Q231.87 11.76 231.57 12.38Q231.28 13.01 231.07 13.64L231.07 13.64Q230.83 14.31 230.69 14.98Q230.54 15.65 230.50 16.24ZM235.90 7.83L235.90 7.83Q235.96 7.63 236.03 7.29Q236.11 6.94 236.18 6.57L236.18 6.57Q235.83 6.69 235.40 7.03Q234.98 7.36 234.52 7.86Q234.07 8.36 233.60 8.98Q233.13 9.60 232.69 10.30L232.69 10.30Q233.87 10.21 235.37 10.18L235.37 10.18Q235.48 9.59 235.61 9.01Q235.75 8.43 235.90 7.83ZM254.88 5.74L254.88 5.74Q254.93 5.98 254.95 6.07Q254.97 6.16 254.97 6.31L254.97 6.31Q254.97 6.78 254.76 7.18Q254.56 7.57 254.21 7.74L254.21 7.74Q253.93 7.36 253.53 7.09Q253.12 6.82 252.64 6.64Q252.15 6.47 251.64 6.38Q251.12 6.30 250.63 6.30L250.63 6.30Q250.14 6.30 249.71 6.38Q249.28 6.45 248.95 6.59Q248.63 6.72 248.44 6.92Q248.25 7.11 248.25 7.36L248.25 7.36Q248.29 7.67 248.63 7.99Q248.96 8.30 249.45 8.60Q249.94 8.90 250.54 9.20Q251.13 9.49 251.71 9.76L251.71 9.76Q252.42 10.09 252.94 10.38Q253.46 10.67 253.79 11.01Q254.13 11.35 254.30 11.79Q254.46 12.22 254.46 12.84L254.46 12.84Q254.46 13.55 254.23 14.18Q253.99 14.80 253.53 15.26Q253.08 15.72 252.43 15.98Q251.79 16.24 250.99 16.24L250.99 16.24Q250.21 16.24 249.30 16.00Q248.39 15.76 247.60 15.35Q246.81 14.94 246.28 14.40Q245.76 13.86 245.76 13.26L245.76 13.26Q245.76 12.98 245.92 12.54Q246.08 12.11 246.50 11.63L246.50 11.63Q246.54 12.05 246.95 12.63Q247.37 13.20 248.19 13.69L248.19 13.69Q248.96 14.14 249.78 14.34Q250.60 14.55 251.31 14.55L251.31 14.55Q252.10 14.55 252.59 14.35Q253.08 14.15 253.36 13.88Q253.64 13.61 253.75 13.33Q253.86 13.05 253.88 12.88L253.88 12.88Q253.86 12.60 253.62 12.34Q253.37 12.08 252.96 11.84Q252.55 11.59 252.00 11.34Q251.45 11.09 250.87 10.84L250.87 10.84Q249.98 10.44 249.35 10.10Q248.71 9.76 248.30 9.40Q247.88 9.04 247.69 8.65Q247.51 8.26 247.51 7.76L247.51 7.76Q247.51 6.97 247.98 6.27Q248.46 5.57 249.35 5.21L249.35 5.21Q249.80 5.01 250.31 4.93Q250.82 4.84 251.31 4.84L251.31 4.84Q252.24 4.84 253.12 5.10Q254.00 5.35 254.88 5.74ZM266.98 10.35L266.98 10.35Q268.03 9.20 268.86 7.91Q269.70 6.62 270.41 5.01L270.41 5.01Q270.77 5.05 271.11 5.21Q271.45 5.36 271.64 5.56L271.64 5.56Q270.87 6.48 270.25 7.24Q269.63 7.99 269.11 8.66Q268.59 9.32 268.15 9.93Q267.71 10.54 267.29 11.16L267.29 11.16Q267.08 11.87 266.90 12.60Q266.71 13.33 266.57 13.99Q266.43 14.66 266.36 15.22Q266.28 15.79 266.28 16.20L266.28 16.20Q266.13 16.20 265.79 16.14Q265.45 16.07 265.10 15.99Q264.75 15.90 264.47 15.82Q264.18 15.74 264.12 15.68L264.12 15.68Q264.35 15.30 264.56 14.75Q264.78 14.20 264.99 13.59Q265.20 12.98 265.40 12.36Q265.59 11.73 265.76 11.20L265.76 11.20Q265.41 10.11 265.08 9.15Q264.75 8.19 264.45 7.41Q264.14 6.64 263.86 6.08Q263.58 5.52 263.33 5.22L263.33 5.22Q263.47 5.17 263.75 5.11Q264.04 5.05 264.38 5.00Q264.73 4.94 265.08 4.91Q265.44 4.87 265.72 4.86L265.72 4.86Q265.72 5.21 265.78 5.71Q265.85 6.22 265.95 6.79Q266.06 7.36 266.20 7.95Q266.34 8.54 266.48 9.03Q266.62 9.52 266.75 9.88Q266.88 10.23 266.98 10.35Z"></path></g></svg>