<svg data-v-423bf9ae="" xmlns="http://www.w3.org/2000/svg" viewBox="0 0 277.82079002305136 60" class="font"><!----><!----><!----><g data-v-423bf9ae="" id="64f03e4e-5a93-4bcd-89ad-e4bc44691239" fill="black" transform="matrix(6.109979629516602,0,0,6.109979629516602,2.3828980922698975,-11.670059204101562)"><path d="M0.49 6.62L0.49 1.94L3.46 1.94Q5.33 1.94 6.03 3.21L6.03 3.21Q6.62 4.20 6.62 6.48L6.62 6.48L6.91 6.48L6.91 8.82L4.02 8.82L4.02 8.56L4.92 8.56L4.92 6.48L4.66 6.48L4.66 5.63Q4.66 4.18 4.02 3.79L4.02 3.79Q3.64 3.57 2.80 3.57L2.80 3.57L2.41 3.57L2.41 6.43L2.67 6.43L2.67 8.82L0.71 8.82L0.71 6.62L0.49 6.62ZM4.71 8.09L4.71 8.09L4.81 8.09L4.81 8.34L4.86 8.34L4.86 8.42L4.81 8.42L4.81 8.52L4.71 8.52L4.71 8.42L4.53 8.42L4.53 8.36Q4.71 8.11 4.71 8.09ZM4.63 8.34L4.63 8.34L4.71 8.34L4.71 8.24Q4.69 8.24 4.63 8.34ZM2.90 8.54L2.77 8.33L2.86 8.33Q2.88 8.33 2.97 8.44L2.97 8.44Q3.04 8.36 3.04 8.33L3.04 8.33L3.14 8.33L3.14 8.34Q3.04 8.50 3.04 8.54L3.04 8.54L3.17 8.75L3.04 8.75Q3.04 8.70 2.95 8.62L2.95 8.62Q2.89 8.74 2.85 8.75L2.85 8.75L2.75 8.75Q2.86 8.55 2.90 8.54L2.90 8.54ZM-0.39 9.13L-0.39 8.82L0.50 8.82L0.50 9.13L2.67 9.13L2.67 9.78L4.02 9.78L4.02 9.13L6.91 9.13L6.91 9.78L4.92 9.78L4.92 11.52L2.67 11.52L2.67 11.73L0.51 11.73Q0.49 11.73 0.49 11.70L0.49 11.70L0.49 9.13L-0.39 9.13ZM2.67 9.13L2.67 8.82L4.02 8.82L4.02 9.13L2.67 9.13ZM6.91 9.13L6.91 8.82L8.84 8.82L8.84 9.13L6.91 9.13ZM5.15 9.84L5.15 9.84L5.27 9.84Q5.39 10.16 5.41 10.28L5.41 10.28L5.33 10.28Q5.30 10.28 5.28 10.19L5.28 10.19L5.15 10.19Q5.12 10.19 5.11 10.28L5.11 10.28L5.00 10.28L5.00 10.27Q5.00 10.25 5.15 9.84ZM5.53 9.84L5.53 9.84L5.63 9.84L5.71 10.12L5.73 10.12Q5.73 10.09 5.81 9.84L5.81 9.84L5.91 9.84Q5.91 9.89 5.78 10.28L5.78 10.28L5.68 10.28Q5.64 10.28 5.53 9.84ZM6.08 10.28L6.08 9.84L6.19 9.84L6.19 10.28L6.08 10.28ZM6.38 10.28L6.38 9.84L6.57 9.84Q6.78 9.84 6.78 10.08L6.78 10.08Q6.78 10.25 6.57 10.28L6.57 10.28L6.38 10.28ZM6.60 9.94L6.50 9.94L6.50 10.19L6.60 10.19Q6.62 10.19 6.67 10.12L6.67 10.12L6.67 10.00Q6.67 9.98 6.60 9.94L6.60 9.94ZM5.22 9.97L5.20 9.97Q5.20 9.99 5.17 10.10L5.17 10.10L5.25 10.10Q5.22 9.99 5.22 9.97L5.22 9.97ZM7.29 6.33L7.29 1.94L9.18 1.94L9.18 7.12L8.29 7.12L8.29 7.39L9.18 7.39L9.18 8.36Q9.18 9.69 9.65 9.91L9.65 9.91Q9.89 10.06 10.25 10.06L10.25 10.06L10.83 10.06L10.83 8.34L11.34 8.34L11.34 1.94L13.21 1.94L13.21 7.96L12.54 7.96L12.54 8.39L13.21 8.39Q13.20 8.61 13.20 8.72L13.20 8.72L13.20 10.64L12.22 10.64L12.22 11.73L7.84 11.73L7.84 10.38L7.44 10.38L7.44 6.33L7.29 6.33ZM9.18 7.39L9.18 7.12L10.25 7.12L10.25 7.39L9.18 7.39ZM15.00 7.57L16.68 1.96L18.33 1.96Q18.36 2.10 19.93 7.29L19.93 7.29L20.23 7.29L20.23 10.51L19.55 10.51L19.55 10.76L20.23 10.76L20.23 11.45L18.41 11.45L18.41 9.47L16.19 9.47L16.19 10.32L15.28 10.32L15.28 11.73L13.63 11.73L13.63 11.63L13.76 11.63L13.76 10.32L14.44 10.32L14.44 7.57L15.00 7.57ZM17.49 4.71L17.45 4.71L17.45 4.72Q17.24 5.89 16.63 8.40L16.63 8.40L18.16 8.40L18.16 7.29L18.03 7.29Q17.49 4.92 17.49 4.71L17.49 4.71ZM13.15 7.57L13.15 7.28L14.44 7.28L14.44 7.57L13.15 7.57ZM18.41 11.73L18.41 11.57L20.60 11.57L20.60 11.73L18.41 11.73ZM20.32 8.85L20.32 1.91L22.27 1.91L22.27 5.94L21.89 5.94L21.89 10.10L24.79 10.10L24.79 10.97L24.22 10.97L24.22 11.17L24.79 11.17L24.79 11.73L22.91 11.73L22.91 11.58L20.34 11.58Q20.32 11.42 20.32 11.33L20.32 11.33L20.32 9.14L20.82 9.14L20.82 8.85L20.32 8.85ZM24.79 11.17L24.79 10.97L25.50 10.97L25.50 11.17L24.79 11.17ZM29.05 8.93L26.60 8.93Q26.33 8.93 26.33 8.74L26.33 8.74L26.33 8.18Q26.33 7.98 26.61 7.98L26.61 7.98L29.04 7.98Q29.32 7.98 29.32 8.18L29.32 8.18L29.32 8.74Q29.32 8.93 29.05 8.93L29.05 8.93ZM30.48 1.93L30.48 1.93L33.26 1.93Q35.12 1.93 35.62 2.87L35.62 2.87Q35.91 3.36 35.91 4.21L35.91 4.21L35.91 4.89Q35.91 5.86 35.07 6.45L35.07 6.45Q35.36 6.50 35.79 6.89L35.79 6.89L36.00 6.89Q36.42 7.31 36.54 7.71L36.54 7.71Q36.58 7.85 36.58 7.86L36.58 7.86L36.85 7.86L36.85 8.03L35.96 8.03L35.96 7.86L34.13 7.86L34.13 7.34L32.34 7.34L32.34 10.19L33.46 10.19L33.46 9.99L34.13 9.99L34.13 8.03L35.96 8.03L35.96 9.75L36.16 9.75L36.16 10.84L35.55 10.84L35.55 11.09L36.16 11.09L36.16 11.55L33.84 11.55L33.84 11.73L31.32 11.73L31.32 11.55L30.77 11.55L30.77 10.04L31.52 10.04L31.52 9.64L30.77 9.64Q30.75 8.49 30.75 7.93L30.75 7.93L30.75 7.21L30.11 7.21L30.11 7.02L30.75 7.02L30.75 6.64L30.45 6.64L30.45 1.97Q30.45 1.93 30.48 1.93ZM32.69 3.59L32.38 3.59L32.38 6.02L32.79 6.02Q33.53 6.02 33.76 5.77L33.76 5.77Q34.00 5.57 34.00 4.70L34.00 4.70L34.00 4.66Q34.00 3.91 33.76 3.76L33.76 3.76Q33.61 3.59 32.69 3.59L32.69 3.59ZM31.67 7.02L30.77 7.02L30.77 7.21L31.67 7.21L31.67 7.02ZM30.40 7.69L30.40 7.24L30.73 7.24L30.73 7.31Q30.73 7.34 30.70 7.34L30.70 7.34L30.50 7.34L30.50 7.41L30.68 7.41Q30.71 7.42 30.71 7.44L30.71 7.44L30.71 7.48Q30.71 7.51 30.68 7.51L30.68 7.51L30.50 7.51L30.50 7.59L30.73 7.59L30.73 7.66Q30.73 7.69 30.70 7.69L30.70 7.69L30.40 7.69ZM33.21 8.03L33.21 7.86L34.13 7.86L34.13 8.03L33.21 8.03ZM36.22 8.06L36.22 8.06L36.28 8.06Q36.31 8.07 36.31 8.09L36.31 8.09L36.31 8.38Q36.29 8.53 36.16 8.53L36.16 8.53Q36.00 8.50 36.00 8.38L36.00 8.38L36.00 8.36Q36.01 8.33 36.04 8.33L36.04 8.33L36.07 8.33Q36.11 8.33 36.13 8.43L36.13 8.43L36.19 8.43L36.19 8.09Q36.20 8.06 36.22 8.06ZM36.07 8.65L36.07 8.65L36.21 8.65Q36.44 8.65 36.44 8.90L36.44 8.90Q36.44 9.07 36.22 9.10L36.22 9.10L36.04 9.10L36.04 8.68Q36.05 8.65 36.07 8.65ZM36.21 8.75L36.16 8.75L36.16 9.00L36.22 9.00Q36.33 9.00 36.33 8.90L36.33 8.90L36.33 8.87Q36.33 8.75 36.21 8.75L36.21 8.75ZM36.07 9.24L36.07 9.24L36.33 9.24Q36.36 9.24 36.36 9.27L36.36 9.27L36.36 9.34L36.16 9.34L36.16 9.42L36.33 9.42L36.33 9.50L36.16 9.50L36.16 9.65Q36.16 9.69 36.13 9.69L36.13 9.69L36.04 9.69L36.04 9.27Q36.05 9.24 36.07 9.24ZM33.73 9.57L33.73 9.50L34.08 9.50L34.08 9.58L33.87 9.86L34.10 9.86L34.10 9.92Q34.10 9.95 34.06 9.95L34.06 9.95L33.75 9.95Q33.71 9.95 33.71 9.92L33.71 9.92L33.71 9.87L33.93 9.60L33.76 9.60Q33.73 9.60 33.73 9.57L33.73 9.57ZM32.39 9.86L32.39 9.79L32.41 9.79Q32.72 9.88 32.72 9.92L32.72 9.92L32.72 9.95Q32.69 10.00 32.41 10.10L32.41 10.10L32.39 10.07L32.39 10.06Q32.39 10.01 32.59 9.95L32.59 9.95Q32.59 9.92 32.39 9.86L32.39 9.86ZM37.45 1.93L37.45 1.93L39.29 1.93Q39.32 1.94 39.32 1.97L39.32 1.97L39.32 6.73Q39.32 6.76 39.29 6.76L39.29 6.76L39.07 6.76L39.07 11.70Q39.07 11.73 39.04 11.73L39.04 11.73L37.45 11.73Q37.41 11.73 37.41 11.70L37.41 11.70L37.41 6.64L36.92 6.64Q36.89 6.64 36.89 6.61L36.89 6.61L36.89 6.40Q36.89 6.36 36.92 6.36L36.92 6.36L37.41 6.36L37.41 1.97Q37.42 1.93 37.45 1.93ZM38.37 6.36L37.43 6.36L37.43 6.64L38.37 6.64L38.37 6.36ZM39.33 3.57L39.33 1.93L45.08 1.93L45.08 3.57L43.18 3.57L43.18 10.34L44.04 10.34L44.04 10.54L43.18 10.54L43.18 11.29L42.66 11.29L42.66 11.55L43.03 11.55L43.03 11.73L41.28 11.73Q41.25 11.73 41.25 11.70L41.25 11.70L41.25 3.57L39.33 3.57ZM43.16 10.34L42.50 10.34L42.50 10.54L43.16 10.54L43.16 10.34Z"></path></g><!----><!----></svg>